STARTFONT 2.1
FONT -Fondu-Espy Serif Bold-Medium-R-Normal--12-120-75-75-P-89-MacRoman-1
SIZE 12 75 75
FONTBOUNDINGBOX 20 17 -2 -3
COMMENT Created by Fondu from a mac NFNT/FONT resource
STARTPROPERTIES 17
FOUNDRY "Fondu"
FAMILY_NAME "Espy Serif Bold"
WEIGHT_NAME "Medium"
SLANT "R"
SETWIDTH_NAME "Normal"
ADD_STYLE_NAME ""
PIXEL_SIZE 12
POINT_SIZE 120
RESOLUTION_X 75
RESOLUTION_Y 75
SPACING "P"
AVERAGE_WIDTH 89
CHARSET_REGISTRY "MacRoman"
CHARSET_ENCODING "1"
FONT_ASCENT 14
FONT_DESCENT 3
FACE_NAME "Espy Serif Bold 12"
ENDPROPERTIES
CHARS 224
STARTCHAR space
ENCODING 32
SWIDTH 333 0
DWIDTH 4 0
BBX 0 0 -2 -3
BITMAP
ENDCHAR
STARTCHAR exclam
ENCODING 33
SWIDTH 333 0
DWIDTH 4 0
BBX 2 10 1 0
BITMAP
C0
C0
C0
C0
C0
C0
C0
00
C0
C0
ENDCHAR
STARTCHAR quotedbl
ENCODING 34
SWIDTH 500 0
DWIDTH 6 0
BBX 5 4 0 7
BITMAP
D8
D8
D8
48
ENDCHAR
STARTCHAR numbersign
ENCODING 35
SWIDTH 916 0
DWIDTH 11 0
BBX 10 9 0 0
BITMAP
1980
1980
7FC0
3300
3300
3300
FF80
6600
6600
ENDCHAR
STARTCHAR dollar
ENCODING 36
SWIDTH 666 0
DWIDTH 8 0
BBX 7 11 0 -1
BITMAP
10
7C
C6
E0
F8
7C
3E
0E
C6
7C
10
ENDCHAR
STARTCHAR percent
ENCODING 37
SWIDTH 1166 0
DWIDTH 14 0
BBX 13 9 0 0
BITMAP
7870
CCE0
CDC0
7B80
0700
0EF0
1D98
3998
70F0
ENDCHAR
STARTCHAR ampersand
ENCODING 38
SWIDTH 1083 0
DWIDTH 13 0
BBX 12 10 0 0
BITMAP
3E00
7700
7700
7600
3CF0
6E60
E7C0
E380
F7C0
7EF0
ENDCHAR
STARTCHAR quotesingle
ENCODING 39
SWIDTH 250 0
DWIDTH 3 0
BBX 2 4 0 7
BITMAP
C0
C0
C0
40
ENDCHAR
STARTCHAR parenleft
ENCODING 40
SWIDTH 500 0
DWIDTH 6 0
BBX 5 13 0 -2
BITMAP
18
30
70
60
E0
E0
E0
E0
E0
60
70
30
18
ENDCHAR
STARTCHAR parenright
ENCODING 41
SWIDTH 500 0
DWIDTH 6 0
BBX 5 13 0 -2
BITMAP
C0
60
70
30
38
38
38
38
38
30
70
60
C0
ENDCHAR
STARTCHAR asterisk
ENCODING 42
SWIDTH 500 0
DWIDTH 6 0
BBX 5 6 0 4
BITMAP
20
A8
70
70
A8
20
ENDCHAR
STARTCHAR plus
ENCODING 43
SWIDTH 666 0
DWIDTH 8 0
BBX 7 5 0 1
BITMAP
10
10
FE
10
10
ENDCHAR
STARTCHAR comma
ENCODING 44
SWIDTH 416 0
DWIDTH 5 0
BBX 3 4 1 -2
BITMAP
E0
E0
20
C0
ENDCHAR
STARTCHAR hyphen
ENCODING 45
SWIDTH 500 0
DWIDTH 6 0
BBX 5 1 0 4
BITMAP
F8
ENDCHAR
STARTCHAR period
ENCODING 46
SWIDTH 416 0
DWIDTH 5 0
BBX 3 2 1 0
BITMAP
E0
E0
ENDCHAR
STARTCHAR slash
ENCODING 47
SWIDTH 583 0
DWIDTH 7 0
BBX 7 12 0 -2
BITMAP
06
06
0C
0C
18
18
30
30
60
60
C0
C0
ENDCHAR
STARTCHAR zero
ENCODING 48
SWIDTH 750 0
DWIDTH 9 0
BBX 8 10 0 0
BITMAP
3C
66
E7
E7
E7
E7
E7
E7
66
3C
ENDCHAR
STARTCHAR one
ENCODING 49
SWIDTH 750 0
DWIDTH 9 0
BBX 7 10 1 0
BITMAP
38
F8
38
38
38
38
38
38
38
FE
ENDCHAR
STARTCHAR two
ENCODING 50
SWIDTH 750 0
DWIDTH 9 0
BBX 8 10 0 0
BITMAP
7E
C7
C7
07
0E
1C
38
71
FF
FF
ENDCHAR
STARTCHAR three
ENCODING 51
SWIDTH 750 0
DWIDTH 9 0
BBX 8 10 0 0
BITMAP
7E
C7
07
0E
3C
0E
07
07
CF
7E
ENDCHAR
STARTCHAR four
ENCODING 52
SWIDTH 750 0
DWIDTH 9 0
BBX 8 10 0 0
BITMAP
0C
18
36
6E
CE
CE
FF
0E
0E
1F
ENDCHAR
STARTCHAR five
ENCODING 53
SWIDTH 750 0
DWIDTH 9 0
BBX 8 10 0 0
BITMAP
7F
7E
60
60
7C
0F
07
07
CF
7E
ENDCHAR
STARTCHAR six
ENCODING 54
SWIDTH 750 0
DWIDTH 9 0
BBX 8 10 0 0
BITMAP
1E
36
60
E0
FE
E7
E7
E7
E7
7E
ENDCHAR
STARTCHAR seven
ENCODING 55
SWIDTH 666 0
DWIDTH 8 0
BBX 7 10 0 0
BITMAP
FE
FE
86
0C
0C
18
38
38
70
70
ENDCHAR
STARTCHAR eight
ENCODING 56
SWIDTH 750 0
DWIDTH 9 0
BBX 8 10 0 0
BITMAP
7E
E7
E7
F6
7C
3E
6F
E7
E7
7E
ENDCHAR
STARTCHAR nine
ENCODING 57
SWIDTH 750 0
DWIDTH 9 0
BBX 8 10 0 0
BITMAP
7E
E7
E7
E7
E7
7F
07
06
6C
78
ENDCHAR
STARTCHAR colon
ENCODING 58
SWIDTH 416 0
DWIDTH 5 0
BBX 3 7 1 0
BITMAP
E0
E0
00
00
00
E0
E0
ENDCHAR
STARTCHAR semicolon
ENCODING 59
SWIDTH 416 0
DWIDTH 5 0
BBX 3 9 1 -2
BITMAP
E0
E0
00
00
00
E0
E0
20
C0
ENDCHAR
STARTCHAR less
ENCODING 60
SWIDTH 583 0
DWIDTH 7 0
BBX 6 5 0 1
BITMAP
0C
30
C0
30
0C
ENDCHAR
STARTCHAR equal
ENCODING 61
SWIDTH 583 0
DWIDTH 7 0
BBX 6 3 0 2
BITMAP
FC
00
FC
ENDCHAR
STARTCHAR greater
ENCODING 62
SWIDTH 583 0
DWIDTH 7 0
BBX 6 5 0 1
BITMAP
C0
30
0C
30
C0
ENDCHAR
STARTCHAR question
ENCODING 63
SWIDTH 750 0
DWIDTH 9 0
BBX 8 10 0 0
BITMAP
7E
E7
E7
0E
1C
38
38
00
38
38
ENDCHAR
STARTCHAR at
ENCODING 64
SWIDTH 1000 0
DWIDTH 12 0
BBX 11 8 0 -1
BITMAP
3F80
60C0
CE60
DB60
DB60
CDC0
6000
3F00
ENDCHAR
STARTCHAR A
ENCODING 65
SWIDTH 1000 0
DWIDTH 12 0
BBX 13 10 -1 0
BITMAP
0700
0700
0F80
0B80
19C0
11C0
3FE0
20E0
60F0
F1F8
ENDCHAR
STARTCHAR B
ENCODING 66
SWIDTH 916 0
DWIDTH 11 0
BBX 10 10 0 0
BITMAP
FE00
7380
7380
7380
7F00
7380
71C0
71C0
71C0
FF80
ENDCHAR
STARTCHAR C
ENCODING 67
SWIDTH 916 0
DWIDTH 11 0
BBX 10 10 0 0
BITMAP
1F40
71C0
F0C0
E040
E000
E000
E000
F040
70C0
1F80
ENDCHAR
STARTCHAR D
ENCODING 68
SWIDTH 1000 0
DWIDTH 12 0
BBX 11 10 0 0
BITMAP
FF00
71C0
70E0
70E0
70E0
70E0
70E0
70E0
71C0
FF00
ENDCHAR
STARTCHAR E
ENCODING 69
SWIDTH 833 0
DWIDTH 10 0
BBX 9 10 0 0
BITMAP
FF80
7180
7080
7000
7E00
7000
7000
7080
7180
FF80
ENDCHAR
STARTCHAR F
ENCODING 70
SWIDTH 833 0
DWIDTH 10 0
BBX 9 10 0 0
BITMAP
FF80
7180
7080
7000
7E00
7000
7000
7000
7000
F800
ENDCHAR
STARTCHAR G
ENCODING 71
SWIDTH 1083 0
DWIDTH 13 0
BBX 12 10 0 0
BITMAP
1F40
71C0
F0C0
E040
E000
E1F0
E0E0
F0E0
71E0
1F80
ENDCHAR
STARTCHAR H
ENCODING 72
SWIDTH 1083 0
DWIDTH 13 0
BBX 12 10 0 0
BITMAP
F9F0
70E0
70E0
70E0
7FE0
70E0
70E0
70E0
70E0
F9F0
ENDCHAR
STARTCHAR I
ENCODING 73
SWIDTH 500 0
DWIDTH 6 0
BBX 5 10 0 0
BITMAP
F8
70
70
70
70
70
70
70
70
F8
ENDCHAR
STARTCHAR J
ENCODING 74
SWIDTH 500 0
DWIDTH 6 0
BBX 7 13 -2 -3
BITMAP
3E
1C
1C
1C
1C
1C
1C
1C
1C
1C
1C
38
F0
ENDCHAR
STARTCHAR K
ENCODING 75
SWIDTH 1083 0
DWIDTH 13 0
BBX 13 10 0 0
BITMAP
F9F0
71C0
7300
7600
7F00
7780
73C0
71E0
70F0
F9F8
ENDCHAR
STARTCHAR L
ENCODING 76
SWIDTH 916 0
DWIDTH 11 0
BBX 10 10 0 0
BITMAP
F800
7000
7000
7000
7000
7000
7000
7040
70C0
FFC0
ENDCHAR
STARTCHAR M
ENCODING 77
SWIDTH 1333 0
DWIDTH 16 0
BBX 15 10 0 0
BITMAP
F83E
783C
7C7C
5C5C
5EDC
4E9C
4F9C
471C
471C
E23E
ENDCHAR
STARTCHAR N
ENCODING 78
SWIDTH 1000 0
DWIDTH 12 0
BBX 11 10 0 0
BITMAP
E0E0
7040
7840
7C40
5E40
4F40
47C0
43C0
41C0
E0C0
ENDCHAR
STARTCHAR O
ENCODING 79
SWIDTH 1000 0
DWIDTH 12 0
BBX 11 10 0 0
BITMAP
1F00
71C0
F1E0
E0E0
E0E0
E0E0
E0E0
F1E0
71C0
1F00
ENDCHAR
STARTCHAR P
ENCODING 80
SWIDTH 833 0
DWIDTH 10 0
BBX 9 10 0 0
BITMAP
FE00
7380
7380
7380
7380
7E00
7000
7000
7000
F800
ENDCHAR
STARTCHAR Q
ENCODING 81
SWIDTH 1000 0
DWIDTH 12 0
BBX 11 12 0 -2
BITMAP
1F00
71C0
F1E0
E0E0
E0E0
E0E0
E0E0
F1E0
71C0
1F00
0F00
03E0
ENDCHAR
STARTCHAR R
ENCODING 82
SWIDTH 916 0
DWIDTH 11 0
BBX 11 10 0 0
BITMAP
FE00
7380
7380
7380
7700
7E00
7700
7380
71C0
F9E0
ENDCHAR
STARTCHAR S
ENCODING 83
SWIDTH 750 0
DWIDTH 9 0
BBX 8 10 0 0
BITMAP
7D
E3
E1
F0
7C
3E
0F
87
C7
BE
ENDCHAR
STARTCHAR T
ENCODING 84
SWIDTH 1000 0
DWIDTH 12 0
BBX 11 10 0 0
BITMAP
FFE0
CE60
8E20
0E00
0E00
0E00
0E00
0E00
0E00
1F00
ENDCHAR
STARTCHAR U
ENCODING 85
SWIDTH 1000 0
DWIDTH 12 0
BBX 11 10 0 0
BITMAP
F8E0
7040
7040
7040
7040
7040
7040
7040
7880
3F00
ENDCHAR
STARTCHAR V
ENCODING 86
SWIDTH 1000 0
DWIDTH 12 0
BBX 13 10 -1 0
BITMAP
FC78
7830
3820
3C40
1C40
1CC0
0E80
0F80
0700
0700
ENDCHAR
STARTCHAR W
ENCODING 87
SWIDTH 1333 0
DWIDTH 16 0
BBX 17 10 -1 0
BITMAP
F9E780
70C300
38E200
38E600
39E400
1D7400
1D7400
1E7800
0E3800
0E3800
ENDCHAR
STARTCHAR X
ENCODING 88
SWIDTH 1083 0
DWIDTH 13 0
BBX 12 10 0 0
BITMAP
FDF0
78C0
3D80
1F00
0E00
0F00
1F80
33C0
61E0
F3F0
ENDCHAR
STARTCHAR Y
ENCODING 89
SWIDTH 833 0
DWIDTH 10 0
BBX 11 10 -1 0
BITMAP
F9E0
70C0
3880
1D00
1F00
0E00
0E00
0E00
0E00
1F00
ENDCHAR
STARTCHAR Z
ENCODING 90
SWIDTH 833 0
DWIDTH 10 0
BBX 9 10 0 0
BITMAP
FF80
C380
8780
0F00
1E00
3C00
7800
F080
E180
FF80
ENDCHAR
STARTCHAR bracketleft
ENCODING 91
SWIDTH 416 0
DWIDTH 5 0
BBX 4 13 0 -2
BITMAP
F0
C0
C0
C0
C0
C0
C0
C0
C0
C0
C0
C0
F0
ENDCHAR
STARTCHAR backslash
ENCODING 92
SWIDTH 666 0
DWIDTH 8 0
BBX 9 12 -1 -2
BITMAP
E000
6000
7000
3000
3800
1800
1C00
0C00
0E00
0600
0700
0380
ENDCHAR
STARTCHAR bracketright
ENCODING 93
SWIDTH 416 0
DWIDTH 5 0
BBX 4 13 0 -2
BITMAP
F0
30
30
30
30
30
30
30
30
30
30
30
F0
ENDCHAR
STARTCHAR asciicircum
ENCODING 94
SWIDTH 500 0
DWIDTH 6 0
BBX 5 6 0 3
BITMAP
20
20
70
50
D8
88
ENDCHAR
STARTCHAR underscore
ENCODING 95
SWIDTH 666 0
DWIDTH 8 0
BBX 8 1 -1 -1
BITMAP
FF
ENDCHAR
STARTCHAR grave
ENCODING 96
SWIDTH 416 0
DWIDTH 5 0
BBX 4 2 0 8
BITMAP
E0
30
ENDCHAR
STARTCHAR a
ENCODING 97
SWIDTH 833 0
DWIDTH 10 0
BBX 9 7 0 0
BITMAP
7E00
E700
0F00
7700
E700
EF00
7380
ENDCHAR
STARTCHAR b
ENCODING 98
SWIDTH 750 0
DWIDTH 9 0
BBX 9 10 -1 0
BITMAP
F000
7000
7000
7700
7B80
7380
7380
7380
7300
6E00
ENDCHAR
STARTCHAR c
ENCODING 99
SWIDTH 666 0
DWIDTH 8 0
BBX 7 7 0 0
BITMAP
3E
66
E0
E0
E0
F2
7C
ENDCHAR
STARTCHAR d
ENCODING 100
SWIDTH 833 0
DWIDTH 10 0
BBX 9 10 0 0
BITMAP
0F00
0700
0700
3F00
6700
E700
E700
E700
E700
7B80
ENDCHAR
STARTCHAR e
ENCODING 101
SWIDTH 750 0
DWIDTH 9 0
BBX 8 7 0 0
BITMAP
3E
67
FF
E0
E0
F1
7E
ENDCHAR
STARTCHAR f
ENCODING 102
SWIDTH 583 0
DWIDTH 7 0
BBX 7 10 0 0
BITMAP
3E
76
70
FC
70
70
70
70
70
F8
ENDCHAR
STARTCHAR g
ENCODING 103
SWIDTH 833 0
DWIDTH 10 0
BBX 9 9 0 -2
BITMAP
7D80
E700
E700
7E00
E000
7F00
E380
E380
7F00
ENDCHAR
STARTCHAR h
ENCODING 104
SWIDTH 916 0
DWIDTH 11 0
BBX 10 10 0 0
BITMAP
F000
7000
7000
7700
7B80
7380
7380
7380
7380
FBC0
ENDCHAR
STARTCHAR i
ENCODING 105
SWIDTH 500 0
DWIDTH 6 0
BBX 5 10 0 0
BITMAP
70
70
00
F0
70
70
70
70
70
F8
ENDCHAR
STARTCHAR j
ENCODING 106
SWIDTH 500 0
DWIDTH 6 0
BBX 5 12 -1 -2
BITMAP
38
38
00
78
38
38
38
38
38
38
30
E0
ENDCHAR
STARTCHAR k
ENCODING 107
SWIDTH 833 0
DWIDTH 10 0
BBX 10 10 0 0
BITMAP
F000
7000
7000
7380
7600
7C00
7E00
7700
7380
F3C0
ENDCHAR
STARTCHAR l
ENCODING 108
SWIDTH 500 0
DWIDTH 6 0
BBX 5 10 0 0
BITMAP
F0
70
70
70
70
70
70
70
70
F8
ENDCHAR
STARTCHAR m
ENCODING 109
SWIDTH 1333 0
DWIDTH 16 0
BBX 15 7 0 0
BITMAP
EF78
739C
739C
739C
739C
739C
FBDE
ENDCHAR
STARTCHAR n
ENCODING 110
SWIDTH 916 0
DWIDTH 11 0
BBX 10 7 0 0
BITMAP
F700
7B80
7380
7380
7380
7380
FBC0
ENDCHAR
STARTCHAR o
ENCODING 111
SWIDTH 833 0
DWIDTH 10 0
BBX 9 7 0 0
BITMAP
3E00
6700
E380
E380
E380
7300
3E00
ENDCHAR
STARTCHAR p
ENCODING 112
SWIDTH 833 0
DWIDTH 10 0
BBX 9 9 0 -2
BITMAP
F700
7B80
7380
7380
7380
7B00
7600
7000
F800
ENDCHAR
STARTCHAR q
ENCODING 113
SWIDTH 750 0
DWIDTH 9 0
BBX 9 9 0 -2
BITMAP
3B00
6700
E700
E700
E700
EF00
7700
0700
0F80
ENDCHAR
STARTCHAR r
ENCODING 114
SWIDTH 666 0
DWIDTH 8 0
BBX 7 7 0 0
BITMAP
F6
7E
70
70
70
70
F8
ENDCHAR
STARTCHAR s
ENCODING 115
SWIDTH 666 0
DWIDTH 8 0
BBX 7 7 0 0
BITMAP
7A
E6
F2
7C
9E
CE
BC
ENDCHAR
STARTCHAR t
ENCODING 116
SWIDTH 583 0
DWIDTH 7 0
BBX 6 9 0 0
BITMAP
10
30
FC
70
70
70
70
70
3C
ENDCHAR
STARTCHAR u
ENCODING 117
SWIDTH 916 0
DWIDTH 11 0
BBX 10 7 0 0
BITMAP
F780
7380
7380
7380
7380
7780
39C0
ENDCHAR
STARTCHAR v
ENCODING 118
SWIDTH 750 0
DWIDTH 9 0
BBX 10 7 -1 0
BITMAP
F9C0
7080
3980
3900
1D00
1E00
0E00
ENDCHAR
STARTCHAR w
ENCODING 119
SWIDTH 1083 0
DWIDTH 13 0
BBX 14 7 -1 0
BITMAP
F79C
7388
7398
39D0
3BD0
1CE0
1CE0
ENDCHAR
STARTCHAR x
ENCODING 120
SWIDTH 916 0
DWIDTH 11 0
BBX 10 7 0 0
BITMAP
FBC0
7180
3E00
1E00
1F00
6380
F7C0
ENDCHAR
STARTCHAR y
ENCODING 121
SWIDTH 750 0
DWIDTH 9 0
BBX 10 9 -1 -2
BITMAP
F9C0
7080
3980
3900
1D00
0E00
0E00
6C00
7800
ENDCHAR
STARTCHAR z
ENCODING 122
SWIDTH 666 0
DWIDTH 8 0
BBX 7 7 0 0
BITMAP
FE
CE
9C
38
72
E6
FE
ENDCHAR
STARTCHAR braceleft
ENCODING 123
SWIDTH 416 0
DWIDTH 5 0
BBX 4 13 0 -2
BITMAP
30
60
60
60
60
60
C0
60
60
60
60
60
30
ENDCHAR
STARTCHAR bar
ENCODING 124
SWIDTH 416 0
DWIDTH 5 0
BBX 2 13 1 -2
BITMAP
C0
C0
C0
C0
C0
C0
C0
C0
C0
C0
C0
C0
C0
ENDCHAR
STARTCHAR braceright
ENCODING 125
SWIDTH 416 0
DWIDTH 5 0
BBX 4 13 0 -2
BITMAP
C0
60
60
60
60
60
30
60
60
60
60
60
C0
ENDCHAR
STARTCHAR asciitilde
ENCODING 126
SWIDTH 750 0
DWIDTH 9 0
BBX 8 3 0 5
BITMAP
79
BD
9E
ENDCHAR
STARTCHAR char007f
ENCODING 127
SWIDTH 0 0
DWIDTH 0 0
BBX 0 0 -2 -3
BITMAP
ENDCHAR
STARTCHAR Adieresis
ENCODING 128
SWIDTH 1000 0
DWIDTH 12 0
BBX 13 12 -1 0
BITMAP
0D80
0000
0700
0700
0F80
0B80
19C0
11C0
3FE0
20E0
60F0
F1F8
ENDCHAR
STARTCHAR Aring
ENCODING 129
SWIDTH 1000 0
DWIDTH 12 0
BBX 13 13 -1 0
BITMAP
0700
0D80
0700
0700
0700
0F80
0B80
19C0
11C0
3FE0
20E0
60F0
F1F8
ENDCHAR
STARTCHAR Ccedilla
ENCODING 130
SWIDTH 916 0
DWIDTH 11 0
BBX 10 12 0 -2
BITMAP
1F40
71C0
F0C0
E040
E000
E000
E000
F040
70C0
1F80
0400
1800
ENDCHAR
STARTCHAR Eacute
ENCODING 131
SWIDTH 833 0
DWIDTH 10 0
BBX 9 13 0 0
BITMAP
0700
0C00
0000
FF80
7180
7080
7000
7E00
7000
7000
7080
7180
FF80
ENDCHAR
STARTCHAR Ntilde
ENCODING 132
SWIDTH 1000 0
DWIDTH 12 0
BBX 11 13 0 0
BITMAP
0E80
1700
0000
E0E0
7040
7840
7C40
5E40
4F40
47C0
43C0
41C0
E0C0
ENDCHAR
STARTCHAR Odieresis
ENCODING 133
SWIDTH 1000 0
DWIDTH 12 0
BBX 11 12 0 0
BITMAP
1B00
0000
1F00
71C0
F1E0
E0E0
E0E0
E0E0
E0E0
F1E0
71C0
1F00
ENDCHAR
STARTCHAR Udieresis
ENCODING 134
SWIDTH 1000 0
DWIDTH 12 0
BBX 11 12 0 0
BITMAP
1B00
0000
F8E0
7040
7040
7040
7040
7040
7040
7040
7880
3F00
ENDCHAR
STARTCHAR aacute
ENCODING 135
SWIDTH 833 0
DWIDTH 10 0
BBX 9 10 0 0
BITMAP
0E00
1800
0000
7E00
E700
0F00
7700
E700
EF00
7380
ENDCHAR
STARTCHAR agrave
ENCODING 136
SWIDTH 833 0
DWIDTH 10 0
BBX 9 10 0 0
BITMAP
3800
0C00
0000
7E00
E700
0F00
7700
E700
EF00
7380
ENDCHAR
STARTCHAR acircumflex
ENCODING 137
SWIDTH 833 0
DWIDTH 10 0
BBX 9 11 0 0
BITMAP
0800
1C00
2200
0000
7E00
E700
0F00
7700
E700
EF00
7380
ENDCHAR
STARTCHAR adieresis
ENCODING 138
SWIDTH 833 0
DWIDTH 10 0
BBX 9 9 0 0
BITMAP
3600
0000
7E00
E700
0F00
7700
E700
EF00
7380
ENDCHAR
STARTCHAR atilde
ENCODING 139
SWIDTH 833 0
DWIDTH 10 0
BBX 9 10 0 0
BITMAP
1D00
2E00
0000
7E00
E700
0F00
7700
E700
EF00
7380
ENDCHAR
STARTCHAR aring
ENCODING 140
SWIDTH 833 0
DWIDTH 10 0
BBX 9 10 0 0
BITMAP
1C00
3600
1C00
7E00
E700
0F00
7700
E700
EF00
7380
ENDCHAR
STARTCHAR ccedilla
ENCODING 141
SWIDTH 666 0
DWIDTH 8 0
BBX 7 9 0 -2
BITMAP
3E
66
E0
E0
E0
F2
7C
10
60
ENDCHAR
STARTCHAR eacute
ENCODING 142
SWIDTH 750 0
DWIDTH 9 0
BBX 8 10 0 0
BITMAP
0E
18
00
3E
67
FF
E0
E0
F1
7E
ENDCHAR
STARTCHAR egrave
ENCODING 143
SWIDTH 750 0
DWIDTH 9 0
BBX 8 10 0 0
BITMAP
38
0C
00
3E
67
FF
E0
E0
F1
7E
ENDCHAR
STARTCHAR ecircumflex
ENCODING 144
SWIDTH 750 0
DWIDTH 9 0
BBX 8 11 0 0
BITMAP
08
1C
22
00
3E
67
FF
E0
E0
F1
7E
ENDCHAR
STARTCHAR edieresis
ENCODING 145
SWIDTH 750 0
DWIDTH 9 0
BBX 8 9 0 0
BITMAP
36
00
3E
67
FF
E0
E0
F1
7E
ENDCHAR
STARTCHAR iacute
ENCODING 146
SWIDTH 500 0
DWIDTH 6 0
BBX 5 10 0 0
BITMAP
38
60
00
F0
70
70
70
70
70
F8
ENDCHAR
STARTCHAR igrave
ENCODING 147
SWIDTH 500 0
DWIDTH 6 0
BBX 5 10 0 0
BITMAP
E0
30
00
F0
70
70
70
70
70
F8
ENDCHAR
STARTCHAR icircumflex
ENCODING 148
SWIDTH 500 0
DWIDTH 6 0
BBX 5 11 0 0
BITMAP
20
70
88
00
F0
70
70
70
70
70
F8
ENDCHAR
STARTCHAR idieresis
ENCODING 149
SWIDTH 500 0
DWIDTH 6 0
BBX 5 9 0 0
BITMAP
D8
00
F0
70
70
70
70
70
F8
ENDCHAR
STARTCHAR ntilde
ENCODING 150
SWIDTH 916 0
DWIDTH 11 0
BBX 10 10 0 0
BITMAP
1D00
2E00
0000
F700
7B80
7380
7380
7380
7380
FBC0
ENDCHAR
STARTCHAR oacute
ENCODING 151
SWIDTH 833 0
DWIDTH 10 0
BBX 9 10 0 0
BITMAP
0E00
1800
0000
3E00
6700
E380
E380
E380
7300
3E00
ENDCHAR
STARTCHAR ograve
ENCODING 152
SWIDTH 833 0
DWIDTH 10 0
BBX 9 10 0 0
BITMAP
3800
0C00
0000
3E00
6700
E380
E380
E380
7300
3E00
ENDCHAR
STARTCHAR ocircumflex
ENCODING 153
SWIDTH 833 0
DWIDTH 10 0
BBX 9 11 0 0
BITMAP
0800
1C00
2200
0000
3E00
6700
E380
E380
E380
7300
3E00
ENDCHAR
STARTCHAR odieresis
ENCODING 154
SWIDTH 833 0
DWIDTH 10 0
BBX 9 9 0 0
BITMAP
3600
0000
3E00
6700
E380
E380
E380
7300
3E00
ENDCHAR
STARTCHAR otilde
ENCODING 155
SWIDTH 833 0
DWIDTH 10 0
BBX 9 10 0 0
BITMAP
1D00
2E00
0000
3E00
6700
E380
E380
E380
7300
3E00
ENDCHAR
STARTCHAR uacute
ENCODING 156
SWIDTH 916 0
DWIDTH 11 0
BBX 10 10 0 0
BITMAP
0700
0C00
0000
F780
7380
7380
7380
7380
7780
39C0
ENDCHAR
STARTCHAR ugrave
ENCODING 157
SWIDTH 916 0
DWIDTH 11 0
BBX 10 10 0 0
BITMAP
3800
0C00
0000
F780
7380
7380
7380
7380
7780
39C0
ENDCHAR
STARTCHAR ucircumflex
ENCODING 158
SWIDTH 916 0
DWIDTH 11 0
BBX 10 11 0 0
BITMAP
0800
1C00
2200
0000
F780
7380
7380
7380
7380
7780
39C0
ENDCHAR
STARTCHAR udieresis
ENCODING 159
SWIDTH 916 0
DWIDTH 11 0
BBX 10 9 0 0
BITMAP
3600
0000
F780
7380
7380
7380
7380
7780
39C0
ENDCHAR
STARTCHAR dagger
ENCODING 160
SWIDTH 916 0
DWIDTH 11 0
BBX 10 8 0 0
BITMAP
6180
9240
7F80
1200
1200
7F80
9240
6180
ENDCHAR
STARTCHAR degree
ENCODING 161
SWIDTH 416 0
DWIDTH 5 0
BBX 4 4 0 7
BITMAP
60
90
90
60
ENDCHAR
STARTCHAR cent
ENCODING 162
SWIDTH 666 0
DWIDTH 8 0
BBX 7 9 0 -1
BITMAP
08
3C
6A
E8
E8
E8
6A
3C
08
ENDCHAR
STARTCHAR sterling
ENCODING 163
SWIDTH 750 0
DWIDTH 9 0
BBX 8 10 0 0
BITMAP
3C
72
70
70
FC
70
70
70
71
FE
ENDCHAR
STARTCHAR section
ENCODING 164
SWIDTH 833 0
DWIDTH 10 0
BBX 9 9 0 0
BITMAP
0800
1C00
1C00
6B00
F780
6B00
1C00
1C00
0800
ENDCHAR
STARTCHAR bullet
ENCODING 165
SWIDTH 750 0
DWIDTH 9 0
BBX 6 5 1 2
BITMAP
78
FC
FC
FC
78
ENDCHAR
STARTCHAR paragraph
ENCODING 166
SWIDTH 750 0
DWIDTH 9 0
BBX 8 11 0 -1
BITMAP
7F
F6
F6
F6
76
16
16
16
16
16
37
ENDCHAR
STARTCHAR germandbls
ENCODING 167
SWIDTH 1000 0
DWIDTH 12 0
BBX 11 10 0 0
BITMAP
1F80
79C0
7180
F300
7780
73C0
71E0
70E0
74E0
F7C0
ENDCHAR
STARTCHAR registered
ENCODING 168
SWIDTH 666 0
DWIDTH 8 0
BBX 7 8 0 0
BITMAP
38
44
B2
AA
B2
AA
44
38
ENDCHAR
STARTCHAR copyright
ENCODING 169
SWIDTH 666 0
DWIDTH 8 0
BBX 7 8 0 0
BITMAP
38
44
9A
A2
A2
9A
44
38
ENDCHAR
STARTCHAR trademark
ENCODING 170
SWIDTH 833 0
DWIDTH 10 0
BBX 9 4 0 6
BITMAP
E880
4D80
4A80
4A80
ENDCHAR
STARTCHAR acute
ENCODING 171
SWIDTH 416 0
DWIDTH 5 0
BBX 4 2 0 8
BITMAP
70
C0
ENDCHAR
STARTCHAR dieresis
ENCODING 172
SWIDTH 500 0
DWIDTH 6 0
BBX 5 1 0 9
BITMAP
D8
ENDCHAR
STARTCHAR notequal
ENCODING 173
SWIDTH 583 0
DWIDTH 7 0
BBX 6 5 0 1
BITMAP
10
FC
20
FC
40
ENDCHAR
STARTCHAR AE
ENCODING 174
SWIDTH 1333 0
DWIDTH 16 0
BBX 16 10 -1 0
BITMAP
07FF
06E3
0CE1
0CE0
18FC
1FE0
30E0
30E1
60E3
F1FF
ENDCHAR
STARTCHAR Oslash
ENCODING 175
SWIDTH 1000 0
DWIDTH 12 0
BBX 12 12 -1 -1
BITMAP
0010
0FA0
38E0
78F0
7170
7270
7470
7870
78F0
38E0
4F80
8000
ENDCHAR
STARTCHAR infinity
ENCODING 176
SWIDTH 833 0
DWIDTH 10 0
BBX 9 4 0 2
BITMAP
7300
8C80
9880
6700
ENDCHAR
STARTCHAR plusminus
ENCODING 177
SWIDTH 666 0
DWIDTH 8 0
BBX 7 7 0 1
BITMAP
10
10
FE
10
10
00
FE
ENDCHAR
STARTCHAR lessequal
ENCODING 178
SWIDTH 583 0
DWIDTH 7 0
BBX 6 7 0 0
BITMAP
0C
30
C0
30
0C
00
FC
ENDCHAR
STARTCHAR greaterequal
ENCODING 179
SWIDTH 583 0
DWIDTH 7 0
BBX 6 7 0 0
BITMAP
C0
30
0C
30
C0
00
FC
ENDCHAR
STARTCHAR yen
ENCODING 180
SWIDTH 1000 0
DWIDTH 12 0
BBX 11 10 0 0
BITMAP
F9E0
70C0
3880
3980
1F00
7FC0
0E00
7FC0
0E00
1F00
ENDCHAR
STARTCHAR mu
ENCODING 181
SWIDTH 916 0
DWIDTH 11 0
BBX 10 10 0 -3
BITMAP
F780
7380
7380
7380
7380
7780
79C0
6000
6000
6000
ENDCHAR
STARTCHAR partialdiff
ENCODING 182
SWIDTH 750 0
DWIDTH 9 0
BBX 8 10 0 0
BITMAP
7C
0E
07
07
7F
E7
E7
E7
F6
7C
ENDCHAR
STARTCHAR summation
ENCODING 183
SWIDTH 666 0
DWIDTH 8 0
BBX 7 11 0 -1
BITMAP
FE
E2
F0
78
3C
18
30
60
C2
FE
FE
ENDCHAR
STARTCHAR product
ENCODING 184
SWIDTH 1000 0
DWIDTH 12 0
BBX 11 11 0 -1
BITMAP
FFE0
71C0
71C0
71C0
71C0
71C0
71C0
71C0
71C0
71C0
FBE0
ENDCHAR
STARTCHAR pi
ENCODING 185
SWIDTH 1000 0
DWIDTH 12 0
BBX 11 7 0 0
BITMAP
FFC0
7380
7380
7380
73E0
73C0
F380
ENDCHAR
STARTCHAR integral
ENCODING 186
SWIDTH 416 0
DWIDTH 5 0
BBX 4 13 0 -2
BITMAP
30
60
60
60
60
60
60
60
60
60
60
60
C0
ENDCHAR
STARTCHAR ordfeminine
ENCODING 187
SWIDTH 500 0
DWIDTH 6 0
BBX 5 6 0 4
BITMAP
78
D8
D8
68
00
F8
ENDCHAR
STARTCHAR ordmasculine
ENCODING 188
SWIDTH 500 0
DWIDTH 6 0
BBX 5 6 0 4
BITMAP
70
D8
D8
70
00
F8
ENDCHAR
STARTCHAR Omega
ENCODING 189
SWIDTH 916 0
DWIDTH 11 0
BBX 10 10 0 0
BITMAP
3F00
7380
E1C0
E1C0
E1C0
E1C0
6180
3300
9240
F3C0
ENDCHAR
STARTCHAR ae
ENCODING 190
SWIDTH 1166 0
DWIDTH 14 0
BBX 13 7 0 0
BITMAP
7FF0
E738
0FF8
7700
E700
EF88
73F0
ENDCHAR
STARTCHAR oslash
ENCODING 191
SWIDTH 833 0
DWIDTH 10 0
BBX 9 7 0 0
BITMAP
3E80
6700
E780
EB80
F380
7300
BE00
ENDCHAR
STARTCHAR questiondown
ENCODING 192
SWIDTH 750 0
DWIDTH 9 0
BBX 8 10 0 -2
BITMAP
1C
1C
00
1C
1C
38
70
E7
E7
7E
ENDCHAR
STARTCHAR exclamdown
ENCODING 193
SWIDTH 333 0
DWIDTH 4 0
BBX 2 10 1 -2
BITMAP
C0
C0
00
C0
C0
C0
C0
C0
C0
C0
ENDCHAR
STARTCHAR logicalnot
ENCODING 194
SWIDTH 666 0
DWIDTH 8 0
BBX 7 3 0 1
BITMAP
FE
02
02
ENDCHAR
STARTCHAR radical
ENCODING 195
SWIDTH 583 0
DWIDTH 7 0
BBX 6 11 0 -1
BITMAP
04
04
08
08
08
D0
50
50
20
20
20
ENDCHAR
STARTCHAR florin
ENCODING 196
SWIDTH 833 0
DWIDTH 10 0
BBX 11 12 -1 -2
BITMAP
01E0
0380
0300
0FC0
0600
0E00
0E00
1C00
1C00
3800
3800
F000
ENDCHAR
STARTCHAR approxequal
ENCODING 197
SWIDTH 750 0
DWIDTH 9 0
BBX 8 5 0 1
BITMAP
71
8E
00
71
8E
ENDCHAR
STARTCHAR Delta
ENCODING 198
SWIDTH 916 0
DWIDTH 11 0
BBX 10 10 0 0
BITMAP
0C00
0C00
1E00
1E00
2700
2700
4380
4380
81C0
FFC0
ENDCHAR
STARTCHAR guillemotleft
ENCODING 199
SWIDTH 666 0
DWIDTH 8 0
BBX 7 5 0 1
BITMAP
36
6C
D8
6C
36
ENDCHAR
STARTCHAR guillemotright
ENCODING 200
SWIDTH 666 0
DWIDTH 8 0
BBX 7 5 0 1
BITMAP
D8
6C
36
6C
D8
ENDCHAR
STARTCHAR ellipsis
ENCODING 201
SWIDTH 1083 0
DWIDTH 13 0
BBX 10 2 1 0
BITMAP
CCC0
CCC0
ENDCHAR
STARTCHAR nbspace
ENCODING 202
SWIDTH 333 0
DWIDTH 4 0
BBX 0 0 -2 -3
BITMAP
ENDCHAR
STARTCHAR Agrave
ENCODING 203
SWIDTH 1000 0
DWIDTH 12 0
BBX 13 13 -1 0
BITMAP
0E00
0300
0000
0700
0700
0F80
0B80
19C0
11C0
3FE0
20E0
60F0
F1F8
ENDCHAR
STARTCHAR Atilde
ENCODING 204
SWIDTH 1000 0
DWIDTH 12 0
BBX 13 13 -1 0
BITMAP
0740
0B80
0000
0700
0700
0F80
0B80
19C0
11C0
3FE0
20E0
60F0
F1F8
ENDCHAR
STARTCHAR Otilde
ENCODING 205
SWIDTH 1000 0
DWIDTH 12 0
BBX 11 13 0 0
BITMAP
0E80
1700
0000
1F00
71C0
F1E0
E0E0
E0E0
E0E0
E0E0
F1E0
71C0
1F00
ENDCHAR
STARTCHAR OE
ENCODING 206
SWIDTH 1333 0
DWIDTH 16 0
BBX 15 10 0 0
BITMAP
1FFE
71C6
F1C2
E1C0
E1F8
E1C0
E1C0
F1C2
71C6
1FFE
ENDCHAR
STARTCHAR oe
ENCODING 207
SWIDTH 1250 0
DWIDTH 15 0
BBX 14 7 0 0
BITMAP
3EF8
679C
E3FC
E380
E380
73C4
3CF8
ENDCHAR
STARTCHAR endash
ENCODING 208
SWIDTH 833 0
DWIDTH 10 0
BBX 9 1 0 4
BITMAP
FF80
ENDCHAR
STARTCHAR emdash
ENCODING 209
SWIDTH 1333 0
DWIDTH 16 0
BBX 15 1 0 4
BITMAP
FFFE
ENDCHAR
STARTCHAR quotedblleft
ENCODING 210
SWIDTH 500 0
DWIDTH 6 0
BBX 5 4 0 7
BITMAP
48
90
D8
D8
ENDCHAR
STARTCHAR quotedblright
ENCODING 211
SWIDTH 500 0
DWIDTH 6 0
BBX 5 4 0 7
BITMAP
D8
D8
48
90
ENDCHAR
STARTCHAR quoteleft
ENCODING 212
SWIDTH 250 0
DWIDTH 3 0
BBX 2 4 0 7
BITMAP
40
80
C0
C0
ENDCHAR
STARTCHAR quoteright
ENCODING 213
SWIDTH 250 0
DWIDTH 3 0
BBX 2 4 0 7
BITMAP
C0
C0
40
80
ENDCHAR
STARTCHAR divide
ENCODING 214
SWIDTH 666 0
DWIDTH 8 0
BBX 7 5 0 1
BITMAP
10
00
FE
00
10
ENDCHAR
STARTCHAR lozenge
ENCODING 215
SWIDTH 833 0
DWIDTH 10 0
BBX 7 11 0 -1
BITMAP
10
10
28
44
44
82
44
44
28
10
10
ENDCHAR
STARTCHAR ydieresis
ENCODING 216
SWIDTH 750 0
DWIDTH 9 0
BBX 10 11 -1 -2
BITMAP
1B00
0000
F9C0
7080
3980
3900
1D00
0E00
0E00
6C00
7800
ENDCHAR
STARTCHAR Ydieresis
ENCODING 217
SWIDTH 833 0
DWIDTH 10 0
BBX 11 12 -1 0
BITMAP
1980
0000
F9E0
70C0
3880
1D00
1F00
0E00
0E00
0E00
0E00
1F00
ENDCHAR
STARTCHAR fraction
ENCODING 218
SWIDTH 583 0
DWIDTH 7 0
BBX 7 12 0 -2
BITMAP
06
06
0C
0C
18
18
30
30
60
60
C0
C0
ENDCHAR
STARTCHAR currency
ENCODING 219
SWIDTH 666 0
DWIDTH 8 0
BBX 7 7 0 0
BITMAP
BA
6C
C6
82
C6
6C
BA
ENDCHAR
STARTCHAR guilsinglleft
ENCODING 220
SWIDTH 416 0
DWIDTH 5 0
BBX 4 5 0 1
BITMAP
30
60
C0
60
30
ENDCHAR
STARTCHAR guilsinglright
ENCODING 221
SWIDTH 416 0
DWIDTH 5 0
BBX 4 5 0 1
BITMAP
C0
60
30
60
C0
ENDCHAR
STARTCHAR fi
ENCODING 222
SWIDTH 1000 0
DWIDTH 12 0
BBX 11 10 0 0
BITMAP
3FC0
71C0
7000
FFC0
71C0
71C0
71C0
71C0
71C0
FBE0
ENDCHAR
STARTCHAR fl
ENCODING 223
SWIDTH 1000 0
DWIDTH 12 0
BBX 11 10 0 0
BITMAP
3FC0
71C0
71C0
FDC0
71C0
71C0
71C0
71C0
71C0
FBE0
ENDCHAR
STARTCHAR daggerdbl
ENCODING 224
SWIDTH 833 0
DWIDTH 10 0
BBX 7 7 1 0
BITMAP
FE
FE
FE
FE
FE
FE
FE
ENDCHAR
STARTCHAR periodcentered
ENCODING 225
SWIDTH 416 0
DWIDTH 5 0
BBX 2 2 1 4
BITMAP
C0
C0
ENDCHAR
STARTCHAR quotesinglbase
ENCODING 226
SWIDTH 333 0
DWIDTH 4 0
BBX 2 4 1 -2
BITMAP
C0
C0
40
80
ENDCHAR
STARTCHAR quotedblbase
ENCODING 227
SWIDTH 583 0
DWIDTH 7 0
BBX 5 4 1 -2
BITMAP
D8
D8
48
90
ENDCHAR
STARTCHAR perthousand
ENCODING 228
SWIDTH 1583 0
DWIDTH 19 0
BBX 18 9 0 0
BITMAP
787000
CCE000
CDC000
7B8000
070000
0EF780
1D9CC0
399CC0
70F780
ENDCHAR
STARTCHAR Acircumflex
ENCODING 229
SWIDTH 1000 0
DWIDTH 12 0
BBX 13 14 -1 0
BITMAP
0200
0700
0880
0000
0700
0700
0F80
0B80
19C0
11C0
3FE0
20E0
60F0
F1F8
ENDCHAR
STARTCHAR Ecircumflex
ENCODING 230
SWIDTH 833 0
DWIDTH 10 0
BBX 9 14 0 0
BITMAP
0800
1C00
2200
0000
FF80
7180
7080
7000
7E00
7000
7000
7080
7180
FF80
ENDCHAR
STARTCHAR Aacute
ENCODING 231
SWIDTH 1000 0
DWIDTH 12 0
BBX 13 13 -1 0
BITMAP
0380
0600
0000
0700
0700
0F80
0B80
19C0
11C0
3FE0
20E0
60F0
F1F8
ENDCHAR
STARTCHAR Edieresis
ENCODING 232
SWIDTH 833 0
DWIDTH 10 0
BBX 9 12 0 0
BITMAP
3600
0000
FF80
7180
7080
7000
7E00
7000
7000
7080
7180
FF80
ENDCHAR
STARTCHAR Egrave
ENCODING 233
SWIDTH 833 0
DWIDTH 10 0
BBX 9 13 0 0
BITMAP
0700
0C00
0000
FF80
7180
7080
7000
7E00
7000
7000
7080
7180
FF80
ENDCHAR
STARTCHAR Iacute
ENCODING 234
SWIDTH 500 0
DWIDTH 6 0
BBX 5 13 0 0
BITMAP
38
60
00
F8
70
70
70
70
70
70
70
70
F8
ENDCHAR
STARTCHAR Icircumflex
ENCODING 235
SWIDTH 500 0
DWIDTH 6 0
BBX 5 14 0 0
BITMAP
20
70
88
00
F8
70
70
70
70
70
70
70
70
F8
ENDCHAR
STARTCHAR Idieresis
ENCODING 236
SWIDTH 500 0
DWIDTH 6 0
BBX 5 12 0 0
BITMAP
D8
00
F8
70
70
70
70
70
70
70
70
F8
ENDCHAR
STARTCHAR Igrave
ENCODING 237
SWIDTH 500 0
DWIDTH 6 0
BBX 5 13 0 0
BITMAP
E0
30
00
F8
70
70
70
70
70
70
70
70
F8
ENDCHAR
STARTCHAR Oacute
ENCODING 238
SWIDTH 1000 0
DWIDTH 12 0
BBX 11 13 0 0
BITMAP
0700
0C00
0000
1F00
71C0
F1E0
E0E0
E0E0
E0E0
E0E0
F1E0
71C0
1F00
ENDCHAR
STARTCHAR Ocircumflex
ENCODING 239
SWIDTH 1000 0
DWIDTH 12 0
BBX 11 14 0 0
BITMAP
0400
0E00
1100
0000
1F00
71C0
F1E0
E0E0
E0E0
E0E0
E0E0
F1E0
71C0
1F00
ENDCHAR
STARTCHAR apple
ENCODING 240
SWIDTH 833 0
DWIDTH 10 0
BBX 9 10 0 0
BITMAP
0400
0C00
0800
7700
FF80
FE00
FE00
FF80
7F00
3600
ENDCHAR
STARTCHAR Ograve
ENCODING 241
SWIDTH 1000 0
DWIDTH 12 0
BBX 11 13 0 0
BITMAP
1C00
0600
0000
1F00
71C0
F1E0
E0E0
E0E0
E0E0
E0E0
F1E0
71C0
1F00
ENDCHAR
STARTCHAR Uacute
ENCODING 242
SWIDTH 1000 0
DWIDTH 12 0
BBX 11 13 0 0
BITMAP
0380
0600
0000
F8E0
7040
7040
7040
7040
7040
7040
7040
7880
3F00
ENDCHAR
STARTCHAR Ucircumflex
ENCODING 243
SWIDTH 1000 0
DWIDTH 12 0
BBX 11 14 0 0
BITMAP
0400
0E00
1100
0000
F8E0
7040
7040
7040
7040
7040
7040
7040
7880
3F00
ENDCHAR
STARTCHAR Ugrave
ENCODING 244
SWIDTH 1000 0
DWIDTH 12 0
BBX 11 13 0 0
BITMAP
1C00
0600
0000
F8E0
7040
7040
7040
7040
7040
7040
7040
7880
3F00
ENDCHAR
STARTCHAR dotlessi
ENCODING 245
SWIDTH 500 0
DWIDTH 6 0
BBX 5 7 0 0
BITMAP
F0
70
70
70
70
70
F8
ENDCHAR
STARTCHAR circumflex
ENCODING 246
SWIDTH 416 0
DWIDTH 5 0
BBX 4 2 0 8
BITMAP
60
90
ENDCHAR
STARTCHAR tilde
ENCODING 247
SWIDTH 583 0
DWIDTH 7 0
BBX 6 2 0 8
BITMAP
74
B8
ENDCHAR
STARTCHAR macron
ENCODING 248
SWIDTH 416 0
DWIDTH 5 0
BBX 4 1 0 8
BITMAP
F0
ENDCHAR
STARTCHAR breve
ENCODING 249
SWIDTH 416 0
DWIDTH 5 0
BBX 4 2 0 8
BITMAP
90
60
ENDCHAR
STARTCHAR dotaccent
ENCODING 250
SWIDTH 250 0
DWIDTH 3 0
BBX 2 1 0 9
BITMAP
C0
ENDCHAR
STARTCHAR ring
ENCODING 251
SWIDTH 416 0
DWIDTH 5 0
BBX 4 3 0 7
BITMAP
60
90
60
ENDCHAR
STARTCHAR cedilla
ENCODING 252
SWIDTH 333 0
DWIDTH 4 0
BBX 3 3 0 -2
BITMAP
40
20
C0
ENDCHAR
STARTCHAR hungarumlaut
ENCODING 253
SWIDTH 500 0
DWIDTH 6 0
BBX 5 2 0 8
BITMAP
48
90
ENDCHAR
STARTCHAR ogonek
ENCODING 254
SWIDTH 333 0
DWIDTH 4 0
BBX 3 3 0 -2
BITMAP
40
80
60
ENDCHAR
STARTCHAR caron
ENCODING 255
SWIDTH 333 0
DWIDTH 4 0
BBX 3 2 0 8
BITMAP
A0
40
ENDCHAR
ENDFONT
